# xmcd
#
# Track frame offsets:
# 150
# 23096
# 35977
# 62667
# 76673
# 87999
# 109907
# 124422
# 135123
# 164866
# 182126
#
# Disc length: 2622 seconds
#
#
# Revision: 0
# Processed by: cddbd v1.5.2PL0 Copyright (c) Steve Scherf et al.
# Submitted via: Nero 7, 11, 10, 0 
#
DISCID=930a3c0b
DTITLE=Steven Steen - Steven Steen And His Dirty Dive Devils
DYEAR=2007
DGENRE=Blues
TTITLE0=She's Untrue
TTITLE1=Hey Caroline
TTITLE2=And I Still Love You
TTITLE3=Gangster Of Love
TTITLE4=Junior Jumps
TTITLE5=Darling
TTITLE6=Rockin' 'n' Jivin'
TTITLE7=Don't Be Angry
TTITLE8=11:15
TTITLE9=The Walking Blues
TTITLE10=Gonna Ball Tonight
EXTD=
EXTT0=She's Untrue
EXTT1=Hey Caroline
EXTT2=And I Still Love You
EXTT3=Gangster Of Love
EXTT4=Junior Jumps
EXTT5=Darling
EXTT6=Rockin' 'n' Jivin'
EXTT7=Don't Be Angry
EXTT8=11:15
EXTT9=The Walking Blues
EXTT10=Gonna Ball Tonight
PLAYORDER=
